<svg xmlns="http://www.w3.org/2000/svg" xmlns:xlink="http://www.w3.org/1999/xlink" version="1.1" id="Capa_1" x="0px" y="0px" enable-background="new 0 0 566.93 566.93" xml:space="preserve" viewBox="102.94 99.99 361.05 366.94">
<g>
	<path fill="none" stroke="#0193D7" stroke-miterlimit="10" d="M283.467,276.348"/>
	<linearGradient id="SVGID_1_" gradientUnits="userSpaceOnUse" x1="431.8643" y1="380.7388" x2="130.7691" y2="181.4483">
		<stop offset="0" style="stop-color:#7859B1"/>
		<stop offset="1" style="stop-color:#0193D7"/>
	</linearGradient>
	<path fill="url(#SVGID_1_)" d="M395.038,132.732l-20.409,25.752c36.111,29.57,56.823,73.529,56.823,120.604   c0,85.348-68.314,154.781-152.295,154.781c-33.649,0-65.543-10.927-92.226-31.602l-0.007,0.007   c-2.767-2.295-6.281-3.672-10.116-3.672c-2.182,0-4.261,0.451-6.157,1.257c-33.467-30.951-52.396-74.21-52.396-120.771   c0-90.172,72.182-163.533,160.902-163.533c37.14,0,72.018,12.488,100.874,36.113l9.602-12.117   c-31.151-25.511-70.384-39.558-110.476-39.558c-97.161,0-176.216,80.342-176.216,179.095c0,51.297,20.98,98.93,58.038,132.864   c-0.205,1.054-0.313,2.143-0.313,3.261c0,5.472,2.584,10.31,6.552,13.34l-0.014,0.016c32.403,25.101,71.116,38.369,111.953,38.369   c101.922,0,184.831-84.266,184.831-187.85C463.988,221.957,438.859,168.611,395.038,132.732z"/>
	<g>
		<g>
			<path fill="#0193D7" d="M295.175,376.46c-3.486,0-6.451,2.232-7.637,5.359c-54.604-1.256-98.655-46.763-98.655-102.554     c0-1.613-1.285-2.918-2.873-2.918c-1.584,0-2.869,1.305-2.869,2.918c0,58.998,46.608,107.11,104.361,108.387     c1.151,3.183,4.144,5.477,7.673,5.477c4.524,0,8.2-3.741,8.2-8.332C303.375,380.196,299.699,376.46,295.175,376.46z"/>
			<path fill="#7859B1" d="M386.229,272.965c-8.386-52.736-52.687-91.012-105.329-91.012c-1.581,0-3.159,0.037-4.727,0.105     c-3.02,0.133-6.047,0.431-9.045,0.825c-1.476-2.207-3.96-3.66-6.781-3.66c-4.522,0-8.204,3.741-8.204,8.336     c0,4.598,3.682,8.335,8.204,8.335c4.173,0,7.589-3.194,8.099-7.298c2.647-0.331,5.317-0.589,7.979-0.709     c1.486-0.063,2.976-0.098,4.475-0.098c49.814,0,91.728,36.212,99.663,86.105c0.229,1.432,1.446,2.452,2.83,2.452     c0.154,0,0.306-0.013,0.464-0.039C385.424,276.053,386.484,274.555,386.229,272.965z"/>
		</g>
		<linearGradient id="SVGID_2_" gradientUnits="userSpaceOnUse" x1="381.8462" y1="355.5664" x2="194.4892" y2="218.256">
			<stop offset="0" style="stop-color:#7859B1"/>
			<stop offset="1" style="stop-color:#0193D7"/>
		</linearGradient>
		<path fill="url(#SVGID_2_)" d="M283.473,152.642c-26.407,0-51.786,8.069-73.394,23.336l-5.646,3.989l67.33,47.66l-4.985,7.514    l-69.329-49.081l-2.83,2.747c-25.715,24.947-39.877,58.567-39.877,94.667c0,72.134,57.748,130.816,128.73,130.816    c51.392,0,97.775-30.974,118.179-78.912l1.552-3.648l-67.331-47.667l4.992-7.521l65.554,46.4l1.714-6.781    c2.693-10.631,4.059-21.627,4.059-32.687C412.19,211.332,354.448,152.642,283.473,152.642z M283.473,404.563    c-65.703,0-119.157-54.32-119.157-121.089c0-32.091,12.09-62.068,34.135-84.852l38.713,27.41    c-16.351,13.617-26.797,34.278-26.797,57.441c0,41.025,32.728,74.288,73.106,74.288c32.014,0,59.202-20.918,69.1-50.025    l38.69,27.392C371.622,377.44,329.737,404.563,283.473,404.563z M400.402,306.829l-44.271-31.335    c-3.923-37.262-34.947-66.308-72.659-66.308c-6.156,0-12.137,0.774-17.854,2.235l-44.25-31.324    c18.664-11.622,39.995-17.73,62.104-17.73c65.698,0,119.147,54.329,119.147,121.106    C402.62,291.337,401.878,299.163,400.402,306.829z"/>
	</g>
</g>
</svg>